<svg xmlns="http://www.w3.org/2000/svg" width="152" height="45" viewBox="0 0 152 45">
  <g id="Group_26" data-name="Group 26" transform="translate(0 -0.282)">
    <rect id="Rectangle_12" data-name="Rectangle 12" width="152" height="45" rx="8" transform="translate(0 0.282)" fill="#009000"/>
    <text id="Good" transform="translate(65 37.282)" fill="#fff" font-size="18" font-family="Helvetica"><tspan x="0" y="0">Good</tspan></text>
    <path id="iconmonstr-heart-thin" d="M13.585,24.312C7.211,18.042,1.132,12.656,1.132,8.009A5.727,5.727,0,0,1,7.11,2.132c1.485,0,4.7.567,6.474,5.046,1.8-4.492,5.053-5.034,6.482-5.034a5.676,5.676,0,0,1,5.97,5.865c0,4.606-5.814,9.764-12.453,16.3m6.482-23.3a7.4,7.4,0,0,0-6.482,3.666A7.387,7.387,0,0,0,7.11,1,6.842,6.842,0,0,0,0,8.009c0,5.276,6.307,10.674,13.585,17.9,7.279-7.222,13.585-12.62,13.585-17.9a6.824,6.824,0,0,0-7.1-7" transform="translate(13.113 11.453)" fill="#fff" fill-rule="evenodd"/>
    <text id="_1_Likes" data-name="1 Likes" transform="translate(65 17.282)" fill="#fff" font-size="11" font-family="Helvetica"><tspan x="0" y="0">1 Likes</tspan></text>
  </g>
</svg>
