<svg xmlns="http://www.w3.org/2000/svg" width="151" height="45" viewBox="0 0 151 45">
  <g id="Group_47" data-name="Group 47" transform="translate(-3015 -3535)">
    <path id="Path_3" data-name="Path 3" d="M8,0H143a8,8,0,0,1,8,8V37a8,8,0,0,1-8,8H8a8,8,0,0,1-8-8V8A8,8,0,0,1,8,0Z" transform="translate(3015 3535)" fill="#d30303"/>
    <path id="iconmonstr-thumb-6" d="M21.7,16.349a2.754,2.754,0,0,0,2.937-2.837,78.275,78.275,0,0,0-1.682-9.339C22.15,1.129,20.161,0,17.288,0a15.014,15.014,0,0,0-6.041,1.311A20.752,20.752,0,0,1,2,3.4V14.635c3.493.454,7.279,1.082,9.509,8.767.547,1.879,1.1,3.767,3.207,3.767,3.9,0,3.4-6.261,2.486-9.978A14.6,14.6,0,0,1,21.7,16.349Zm-.234-2.255a18.515,18.515,0,0,0-6.928,1.761,24.893,24.893,0,0,1,1.043,6.264c0,2.836-.884,4.15-1.9.65C11.428,15,7.959,13.3,4.264,12.453V5.66c2.854-.082,5.343-1.178,7.878-2.27,1.96-.843,5.489-1.692,7.263-.7,1.466.946,1.261,1.963.331,1.88l-.873-.036a.65.65,0,1,0-.123,1.292s1.5.07,1.975.13c1.1.139,1.164,1.819-.045,1.756-.517-.027-1.294-.046-1.294-.046A.668.668,0,0,0,19.216,9s.808.006,1.994.112,1.22,1.821,0,1.769c-.983-.042-1.21-.031-1.21-.031a.636.636,0,0,0-.16,1.262l1.578.189c1.217.147,1.251,1.728.057,1.794Z" transform="translate(3023.627 3546.039)" fill="#fff"/>
    <text id="Not_Good" data-name="Not Good" transform="translate(3062 3572)" fill="#fff" font-size="18" font-family="Helvetica"><tspan x="0" y="0">Not Good</tspan></text>
    <text id="_0_Likes" data-name="0 Likes" transform="translate(3062 3552)" fill="#fff" font-size="11" font-family="Helvetica"><tspan x="0" y="0">0 Likes</tspan></text>
  </g>
</svg>
